<?xml version="1.0" encoding="UTF-8"?>
<svg id="Layer_1" data-name="Layer 1" xmlns="http://www.w3.org/2000/svg" viewBox="0 0 1090.61 1090.61">
  <defs>
    <style>
      .cls-1 {
        fill: #a7a9ac;
      }

      .cls-2 {
        fill: #f26522;
      }

      .cls-3 {
        stroke: blue;
      }

      .cls-3, .cls-4 {
        fill: none;
        stroke-miterlimit: 10;
        stroke-width: 15px;
      }

      .cls-5 {
        fill: #2c2c2c;
      }

      .cls-4 {
        stroke: red;
      }

      .cls-6 {
        fill: #fff200;
      }

      .cls-7 {
        fill: #00a651;
      }
    </style>
  </defs>
  <rect class="cls-1" x="5.3" y="5.3" width="1080" height="1080"/>
  <g>
    <polygon class="cls-5" points="1085.3 543.58 1085.3 366.77 907.8 366.94 907.8 541.36 1085.3 541.08 1085.3 543.58"/>
    <polygon class="cls-5" points="727.8 362.11 902.8 361.94 902.8 187.8 727.8 187.8 727.8 362.11"/>
    <polygon class="cls-5" points="362.8 727.77 187.8 727.78 187.8 902.86 362.8 902.92 362.8 727.77"/>
    <polygon class="cls-5" points="367.8 362.46 542.8 362.29 542.8 187.8 367.8 187.8 367.8 362.46"/>
    <polygon class="cls-5" points="362.8 542.23 362.8 367.46 187.8 367.63 187.8 542.51 362.8 542.23"/>
    <polygon class="cls-5" points="182.8 722.78 182.8 547.52 5.31 547.8 5.3 545.3 5.3 722.8 182.8 722.78"/>
    <polygon class="cls-5" points="182.8 902.86 182.8 727.78 5.3 727.8 5.3 725.3 5.3 905.3 5.3 902.8 182.8 902.86"/>
    <polygon class="cls-5" points="5.3 365.3 5.3 542.8 182.8 542.52 182.8 367.63 5.31 367.8 5.3 365.3"/>
    <polygon class="cls-5" points="547.8 362.28 722.8 362.12 722.8 187.8 547.8 187.8 547.8 362.28"/>
    <polygon class="cls-5" points="542.8 546.95 367.8 547.22 367.8 722.76 542.8 722.75 542.8 546.95"/>
    <polygon class="cls-5" points="187.8 722.78 362.8 722.77 362.8 547.23 187.8 547.51 187.8 722.78"/>
    <polygon class="cls-5" points="367.8 542.22 542.8 541.95 542.8 367.29 367.8 367.46 367.8 542.22"/>
    <polygon class="cls-5" points="907.8 361.94 1085.3 361.77 1085.3 364.27 1085.3 187.8 907.8 187.8 907.8 361.94"/>
    <polygon class="cls-5" points="902.8 546.37 727.8 546.65 727.8 722.73 902.8 722.71 902.8 546.37"/>
    <polygon class="cls-5" points="722.8 367.12 547.8 367.28 547.8 541.94 722.8 541.66 722.8 367.12"/>
    <polygon class="cls-5" points="727.8 367.11 727.8 541.65 902.8 541.37 902.8 366.94 727.8 367.11"/>
    <polygon class="cls-5" points="722.8 546.66 547.8 546.94 547.8 722.75 722.8 722.73 722.8 546.66"/>
    <polygon class="cls-5" points="187.8 362.63 362.8 362.46 362.8 187.8 187.8 187.8 187.8 362.63"/>
    <polygon class="cls-5" points="5.3 907.8 5.3 1085.3 182.8 1085.3 182.8 907.86 5.3 907.8"/>
    <polygon class="cls-5" points="182.8 362.63 182.8 187.8 5.3 187.8 5.3 362.8 182.8 362.63"/>
    <polygon class="cls-5" points="187.8 907.86 187.8 1085.3 362.8 1085.3 362.8 907.92 187.8 907.86"/>
    <rect class="cls-5" x="187.8" y="5.3" width="175" height="177.5"/>
    <rect class="cls-5" x="5.3" y="5.3" width="177.5" height="177.5"/>
    <polygon class="cls-5" points="1085.3 908.15 907.8 908.09 907.8 1085.3 1085.3 1085.3 1085.3 905.65 1085.3 908.15"/>
    <polygon class="cls-5" points="727.8 908.03 727.8 1085.3 902.8 1085.3 902.8 908.09 727.8 908.03"/>
    <polygon class="cls-5" points="542.8 727.75 367.8 727.76 367.8 902.92 542.8 902.97 542.8 727.75"/>
    <polygon class="cls-5" points="367.8 907.92 367.8 1085.3 542.8 1085.3 542.8 907.97 367.8 907.92"/>
    <polygon class="cls-5" points="547.8 907.98 547.8 1085.3 722.8 1085.3 722.8 908.03 547.8 907.98"/>
    <polygon class="cls-5" points="1085.3 727.69 907.8 727.71 907.8 903.09 1085.3 903.15 1085.3 727.69"/>
    <rect class="cls-5" x="367.8" y="5.3" width="175" height="177.5"/>
    <polygon class="cls-5" points="902.8 727.71 727.8 727.73 727.8 903.03 902.8 903.09 902.8 727.71"/>
    <polygon class="cls-5" points="722.8 727.73 547.8 727.75 547.8 902.98 722.8 903.03 722.8 727.73"/>
    <polygon class="cls-5" points="907.8 546.36 907.8 722.71 1085.3 722.69 1085.3 546.08 907.8 546.36"/>
    <rect class="cls-5" x="547.8" y="5.3" width="175" height="177.5"/>
    <rect class="cls-5" x="907.8" y="5.3" width="177.5" height="177.5"/>
    <rect class="cls-5" x="727.8" y="5.3" width="175" height="177.5"/>
  </g>
  <line class="cls-3" x1="455.3" y1="5.3" x2="455.3" y2="185.3"/>
  <line class="cls-4" x1="635.3" y1="5.3" x2="635.3" y2="185.3"/>
  <line class="cls-3" x1="455.3" y1="1085.3" x2="455.3" y2="905.3"/>
  <line class="cls-4" x1="635.3" y1="1085.3" x2="635.3" y2="905.3"/>
  <line class="cls-3" x1="185.3" y1="1085.3" x2="5.3" y2="905.3"/>
  <line class="cls-4" x1="905.3" y1="1085.3" x2="1085.3" y2="905.3"/>
  <line class="cls-3" x1="1085.3" y1="185.3" x2="905.3" y2="5.3"/>
  <line class="cls-4" x1="185.3" y1="5.3" x2="5.3" y2="185.3"/>
  <polyline class="cls-3" points="5.3 455.3 95.3 545.3 5.3 635.3"/>
  <polyline class="cls-4" points="1085.3 455.3 995.3 545.3 1085.3 635.3"/>
  <circle cx="185.3" cy="185.3" r="22.5"/>
  <circle cx="545.3" cy="545.3" r="22.5"/>
  <circle cx="545.3" cy="905.3" r="22.5"/>
  <circle cx="905.3" cy="185.3" r="22.5"/>
  <circle cx="905.3" cy="545.3" r="22.5"/>
  <circle cx="905.3" cy="905.3" r="22.5"/>
  <circle cx="545.3" cy="185.3" r="22.5"/>
  <circle cx="185.3" cy="905.3" r="22.5"/>
  <circle cx="185.3" cy="545.3" r="22.5"/>
  <circle class="cls-7" cx="725.3" cy="545.3" r="15"/>
  <circle class="cls-7" cx="545.3" cy="365.3" r="15"/>
  <circle class="cls-7" cx="545.3" cy="725.3" r="15"/>
  <circle class="cls-7" cx="365.3" cy="545.3" r="15"/>
  <circle class="cls-6" cx="365.3" cy="365.3" r="15"/>
  <circle class="cls-6" cx="365.3" cy="725.3" r="15"/>
  <circle class="cls-6" cx="725.3" cy="365.3" r="15"/>
  <circle class="cls-6" cx="725.3" cy="725.3" r="15"/>
  <circle class="cls-2" cx="185.3" cy="365.3" r="15"/>
  <circle class="cls-2" cx="185.3" cy="725.3" r="15"/>
  <circle class="cls-2" cx="905.3" cy="365.3" r="15"/>
  <circle class="cls-2" cx="905.3" cy="725.3" r="15"/>
  <circle class="cls-2" cx="725.3" cy="185.3" r="15"/>
  <circle class="cls-2" cx="365.3" cy="185.3" r="15"/>
  <circle class="cls-2" cx="365.3" cy="905.3" r="15"/>
  <circle class="cls-2" cx="725.3" cy="905.3" r="15"/>
</svg>